<svg xmlns="http://www.w3.org/2000/svg" width="44.069" height="44.069" viewBox="0 0 44.069 44.069"><g transform="translate(-8 -8)"><g transform="translate(8 8)"><path d="M30.034,8A22.034,22.034,0,1,0,52.069,30.034,22.028,22.028,0,0,0,30.034,8ZM20.229,46.009c.275-5.288,4.737-9.86,9.805-9.86s9.475,4.517,9.805,9.86a18.831,18.831,0,0,1-19.611,0Zm9.805-15.149a4.3,4.3,0,0,1-4.3-4.3,4.255,4.255,0,0,1,4.3-4.242,4.3,4.3,0,0,1,4.3,4.3A4.255,4.255,0,0,1,30.034,30.861ZM42.87,43.7A13.884,13.884,0,0,0,33.5,33.34a7.586,7.586,0,1,0-11.072-6.721,7.525,7.525,0,0,0,4.131,6.721A13.8,13.8,0,0,0,17.2,43.7a18.729,18.729,0,1,1,25.67,0Z" transform="translate(-8 -8)"/></g></g></svg>