<svg xmlns="http://www.w3.org/2000/svg" width="24" height="24" viewBox="0 0 24 24"><defs><style>.a{fill:#ffd60d;}</style></defs><g transform="translate(-425 -348)"><circle cx="12" cy="12" r="12" transform="translate(425 348)"/><g transform="translate(617.51 452.92)"><path class="a" d="M167.49,126.079a12,12,0,1,0-12,12,12,12,0,0,0,12-12Zm-13.962,3.875h-.036a.939.939,0,0,1-.676-.326l-2.268-2.65a.938.938,0,1,1,1.423-1.217l1.608,1.876,5.466-5.459a.937.937,0,1,1,1.326,1.326l-6.18,6.181A.941.941,0,0,1,153.527,129.954Z" transform="translate(-336 -219)"/></g></g></svg>