<svg xmlns="http://www.w3.org/2000/svg" width="13.691" height="18.937" viewBox="0 0 13.691 18.937"><g transform="translate(-12.87 -5.119)"><g transform="translate(12.87 5.119)"><path d="M31.2,10.271a5.152,5.152,0,1,0-10.3,0c0,2.846,5.152,10.877,5.152,10.877S31.2,13.117,31.2,10.271Zm-6.87.1a1.717,1.717,0,1,1,1.717,1.717A1.718,1.718,0,0,1,24.331,10.367Z" transform="translate(-19.203 -5.119)"/><path d="M23.738,67.009a.859.859,0,0,0-.519,1.637c1.215.385,1.625.853,1.625,1.006,0,.432-1.8,1.487-5.128,1.487s-5.128-1.055-5.128-1.487c0-.154.409-.62,1.623-1.006a.859.859,0,0,0-.519-1.637c-2.455.778-2.821,1.99-2.821,2.643,0,2.1,3.444,3.2,6.846,3.2s6.846-1.1,6.846-3.2C26.561,69,26.194,67.788,23.738,67.009Z" transform="translate(-12.87 -53.92)"/></g></g></svg>