<svg xmlns="http://www.w3.org/2000/svg" width="12.918" height="17.199" viewBox="0 0 12.918 17.199"><g transform="translate(-17.657 -8.614)"><path d="M22.5,11.05l.017.032C22.522,11.094,22.495,11.041,22.5,11.05Zm-.8-2.329a1.041,1.041,0,0,0-.945.013l-.659.38-.042.027a5.722,5.722,0,0,0-2.389,4.469,8.926,8.926,0,0,0,1.4,4.915l1.7,2.938h0l0,.007a8.9,8.9,0,0,0,3.549,3.664,5.716,5.716,0,0,0,5.065.164.46.46,0,0,0,.043-.022l.659-.38a1.047,1.047,0,0,0,.484-.813,2.237,2.237,0,0,0-.125-.866,6.013,6.013,0,0,0-.744-1.48,4.7,4.7,0,0,0-1.5-1.751,1.7,1.7,0,0,0-1.737-.013l-.821.474a.892.892,0,0,1-.822,0,1.584,1.584,0,0,1-.674-.558l-2.023-3.5a1.566,1.566,0,0,1-.146-.863.89.89,0,0,1,.41-.714l.82-.474a1.7,1.7,0,0,0,.858-1.511,4.708,4.708,0,0,0-.769-2.177,5.944,5.944,0,0,0-.907-1.381A2.222,2.222,0,0,0,21.7,8.721Z"/></g></svg>